<svg version="1.0" xmlns="http://www.w3.org/2000/svg"
                    className="w-8 h-8 mr-4" viewBox="0 0 512.000000 512.000000"
                    preserveAspectRatio="xMidYMid meet">

                    <g transform="translate(0.000000,512.000000) scale(0.100000,-0.100000)"
                      fill="#ffffff" stroke="none">
                      <path d="M2563 5106 c-85 -21 -163 -65 -228 -131 -196 -196 -190 -509 14 -697
198 -181 496 -169 679 27 89 94 132 201 132 325 0 315 -294 549 -597 476z"/>
                      <path d="M2245 4020 c-146 -9 -260 -74 -361 -203 -185 -236 -283 -653 -284
-1202 l-1 -170 -116 -129 c-85 -93 -114 -132 -107 -142 5 -7 106 -99 224 -205
118 -106 254 -227 301 -271 l87 -78 129 142 c383 424 573 638 573 645 0 4 -36
39 -80 78 -71 63 -78 71 -64 86 13 14 0 29 -132 148 -132 118 -149 130 -163
117 -15 -13 -25 -7 -98 60 l-81 74 -61 -67 -62 -67 6 60 c24 236 57 402 107
536 l23 63 3 -241 2 -240 71 -64 c67 -59 73 -62 85 -45 13 17 21 12 113 -73
54 -51 103 -92 108 -92 4 0 32 181 62 403 29 221 55 409 57 417 3 12 22 15 92
15 l88 0 53 -400 c29 -220 56 -414 58 -430 4 -26 -8 -46 -91 -150 l-96 -120
37 -32 38 -32 -31 -33 c-17 -18 -169 -187 -337 -375 l-307 -342 0 -709 c0
-774 0 -767 58 -848 16 -21 53 -52 83 -69 47 -26 64 -30 129 -30 57 0 85 6
116 22 54 29 102 79 128 133 21 45 21 49 24 1053 l2 1008 48 -3 47 -3 5 -1015
c5 -965 6 -1017 24 -1050 87 -165 298 -199 426 -70 87 86 80 -67 80 1779 0
1080 4 1631 10 1621 17 -25 67 -191 84 -275 44 -223 50 -308 51 -725 1 -458
-1 -448 78 -495 95 -55 214 -12 251 90 4 11 12 119 17 240 20 452 -23 900
-113 1170 -106 318 -278 504 -497 535 -76 11 -738 11 -896 0z m533 -252 c11
-45 18 -86 16 -90 -24 -39 -137 -52 -198 -23 -41 20 -42 25 -19 123 l17 72 82
0 82 0 20 -82z m-600 -1007 c-7 -9 -21 -26 -32 -39 -12 -13 -16 -26 -10 -31 5
-4 56 -50 114 -101 58 -52 120 -107 138 -124 l32 -30 35 34 34 33 56 -48 c31
-26 55 -51 53 -56 -2 -4 -131 -150 -288 -325 -157 -174 -294 -327 -305 -340
l-20 -24 -140 126 c-186 167 -178 158 -133 139 80 -33 167 -6 214 65 l26 39
-7 308 c-5 217 -4 316 4 336 6 16 37 57 68 92 l57 63 58 -50 c49 -43 56 -53
46 -67z m-545 -715 c29 -44 6 -29 -88 58 l-89 84 69 78 70 78 10 -136 c8 -98
16 -143 28 -162z"/>
                    </g>
                  </svg>