<svg version="1.0" xmlns="http://www.w3.org/2000/svg" className="w-6 h-6 mr-2" viewBox="0 0 512.000000 512.000000" preserveAspectRatio="xMidYMid meet">
                  <g transform="translate(0.000000,512.000000) scale(0.100000,-0.100000)" fill="#ffffff" stroke="none">
                    <path
                      d="M2478 4905 c-61 -23 -106 -63 -133 -120 l-26 -53 -1 -1311 c0 -721
-3 -1311 -6 -1310 -4 0 -110 164 -237 365 -126 201 -245 383 -264 405 -49 58
-103 83 -181 84 -55 0 -74 -5 -120 -31 -97 -54 -145 -164 -117 -269 18 -69
940 -1522 1004 -1583 61 -57 131 -78 208 -62 101 21 117 41 373 440 128 201
312 490 410 642 97 153 210 329 249 390 104 162 117 207 88 306 -52 175 -292
227 -411 90 -16 -19 -135 -201 -264 -405 l-235 -370 -5 1311 c-3 763 -9 1319
-14 1331 -24 52 -71 107 -112 131 -55 32 -150 41 -206 19z"
                    />
                    <path
                      d="M516 3504 c-179 -44 -328 -194 -371 -375 -22 -96 -22 -2442 0 -2538
44 -183 193 -332 376 -376 56 -13 312 -15 2039 -15 1727 0 1983 2 2039 15 183
43 333 193 376 376 22 96 22 2442 0 2538 -45 191 -206 344 -400 381 -40 7
-166 10 -371 8 -309 -3 -311 -3 -346 -27 -128 -88 -113 -269 27 -332 36 -17
71 -19 335 -19 275 0 297 -1 327 -20 67 -41 63 44 63 -1260 0 -1304 4 -1219
-63 -1260 -31 -20 -66 -20 -1985 -20 -2158 0 -1991 -5 -2032 63 -19 31 -20 59
-20 1217 0 1171 0 1185 20 1218 36 59 57 62 382 62 277 0 294 1 336 21 66 32
97 86 97 169 0 76 -22 119 -83 161 l-35 24 -326 2 c-256 1 -339 -1 -385 -13z"
                    />
                  </g>
                </svg>