<svg version="1.0" xmlns="http://www.w3.org/2000/svg"
                    className="w-8 h-8 mr-4" viewBox="0 0 256.000000 256.000000"
                    preserveAspectRatio="xMidYMid meet">
                    <g transform="translate(0.000000,256.000000) scale(0.100000,-0.100000)"
                      fill="#ffffff" stroke="none">
                      <path d="M265 2196 c-59 -18 -88 -41 -115 -88 -71 -127 17 -279 163 -280 59
-1 99 16 138 59 39 41 50 68 50 121 1 92 -49 162 -135 187 -57 17 -50 17 -101
1z m70 -76 c-5 -8 -11 -8 -17 -2 -6 6 -7 16 -3 22 5 8 11 8 17 2 6 -6 7 -16 3
-22z m120 -119 c7 -12 -12 -24 -25 -16 -11 7 -4 25 10 25 5 0 11 -4 15 -9z
m-125 -140 c0 -6 -4 -13 -10 -16 -5 -3 -10 1 -10 9 0 9 5 16 10 16 6 0 10 -4
10 -9z"/>
                      <path d="M1140 2082 c-8 -4 -26 -14 -40 -23 -14 -9 -87 -56 -163 -104 -91 -58
-136 -92 -133 -101 7 -18 -14 -30 -24 -14 -5 8 -65 30 -135 50 l-126 37 -53
-52 c-44 -45 -61 -55 -110 -65 -70 -14 -133 3 -182 51 -26 26 -34 28 -57 20
-40 -16 -53 -45 -87 -205 -25 -113 -30 -154 -22 -171 10 -22 196 -137 274
-169 20 -9 39 -20 43 -26 10 -17 82 -50 108 -50 50 0 78 79 40 112 -18 14
-153 95 -266 158 -34 19 -57 38 -57 48 2 45 27 136 39 140 9 3 12 0 9 -9 -9
-23 -30 -130 -26 -134 1 -2 54 -33 117 -70 80 -46 117 -63 124 -56 16 16 27
13 27 -5 0 -9 17 -31 37 -49 31 -27 37 -38 36 -71 -1 -28 -8 -44 -28 -61 -44
-38 -78 -30 -210 47 -66 39 -123 70 -128 70 -4 0 -5 -15 -2 -32 3 -18 9 -54
14 -81 9 -53 44 -107 111 -177 25 -26 53 -63 63 -82 l18 -35 -121 -192 c-103
-163 -121 -199 -122 -234 -1 -73 75 -118 147 -85 14 6 25 17 25 24 0 7 6 17
14 21 8 4 34 40 58 78 90 145 124 199 175 278 43 65 53 90 53 124 0 23 -3 44
-8 47 -4 2 -23 25 -41 51 -24 33 -28 44 -15 37 26 -14 222 -133 257 -157 33
-22 48 -52 186 -382 52 -127 121 -165 189 -108 53 44 51 77 -14 228 -170 397
-164 387 -238 431 -20 11 -90 54 -155 94 -132 81 -128 75 -146 217 -10 77 -24
125 -38 122 -7 -1 -12 5 -12 13 0 8 6 14 13 12 15 -3 15 -5 -3 97 -8 47 -14
86 -12 87 1 1 56 -13 122 -32 141 -41 123 -45 299 70 61 39 132 84 158 99 109
63 132 104 83 152 -25 25 -38 29 -65 17z m25 -100 c0 -18 -20 -15 -23 4 -3 10
1 15 10 12 7 -3 13 -10 13 -16z m-600 -142 c-5 -8 -11 -8 -17 -2 -6 6 -7 16
-3 22 5 8 11 8 17 2 6 -6 7 -16 3 -22z m-120 -130 c-5 -8 -11 -8 -17 -2 -6 6
-7 16 -3 22 5 8 11 8 17 2 6 -6 7 -16 3 -22z m-120 -140 c-5 -8 -11 -8 -17 -2
-6 6 -7 16 -3 22 5 8 11 8 17 2 6 -6 7 -16 3 -22z m227 -265 c0 -5 -5 -11 -11
-13 -6 -2 -11 4 -11 13 0 9 5 15 11 13 6 -2 11 -8 11 -13z m-114 -133 c2 -7
-3 -12 -12 -12 -9 0 -16 7 -16 16 0 17 22 14 28 -4z m237 -1 c7 -12 -12 -24
-25 -16 -11 7 -4 25 10 25 5 0 11 -4 15 -9z m-123 -136 c0 -5 -5 -11 -11 -13
-6 -2 -11 4 -11 13 0 9 5 15 11 13 6 -2 11 -8 11 -13z m233 -15 c-5 -8 -11 -8
-17 -2 -6 6 -7 16 -3 22 5 8 11 8 17 2 6 -6 7 -16 3 -22z m-352 -133 c-3 -5
-10 -4 -15 1 -6 6 -7 16 -3 22 6 9 9 9 16 -1 4 -7 5 -17 2 -22z m472 -7 c-5
-8 -11 -8 -17 -2 -6 6 -7 16 -3 22 5 8 11 8 17 2 6 -6 7 -16 3 -22z m-598
-126 c-9 -9 -28 6 -21 18 4 6 10 6 17 -1 6 -6 8 -13 4 -17z m718 -3 c7 -12
-12 -24 -25 -16 -11 7 -4 25 10 25 5 0 11 -4 15 -9z m110 -151 c-5 -8 -11 -8
-17 -2 -6 6 -7 16 -3 22 5 8 11 8 17 2 6 -6 7 -16 3 -22z"/>
                      <path d="M1515 1559 c-4 -6 -13 -8 -20 -5 -19 7 -45 -26 -45 -56 0 -71 98 -77
122 -8 12 35 -40 98 -57 69z"/>
                      <path d="M1905 873 c-16 -3 -36 -9 -42 -15 -9 -7 -17 -7 -26 0 -26 22 -222
-26 -302 -73 -39 -22 -44 -29 -34 -41 10 -12 8 -16 -9 -21 -21 -5 -22 -11 -22
-110 0 -103 0 -104 23 -101 18 2 23 10 25 40 l3 38 31 -16 c85 -44 263 -84
376 -84 l52 0 0 -70 c0 -73 2 -76 48 -64 20 6 22 12 22 68 l0 62 118 12 c132
13 213 32 290 67 l52 24 0 -38 c0 -35 2 -38 25 -33 25 4 25 5 25 106 0 118 -7
134 -79 171 -96 48 -381 98 -381 66 0 -6 15 -11 34 -11 l33 0 6 -57 c3 -32 6
-92 7 -134 l1 -76 -47 -7 c-26 -3 -61 -6 -79 -6 l-33 0 -1 139 c-1 133 0 140
19 143 12 2 22 8 23 13 2 11 -105 16 -158 8z m102 -160 l-2 -138 -85 2 c-73 2
-195 21 -238 38 -8 3 -11 15 -7 32 2 16 7 57 11 93 3 36 9 68 12 71 8 7 106
29 128 29 12 0 15 -13 13 -67 -3 -86 -7 -103 -28 -104 -14 -1 -13 -2 2 -6 11
-3 17 -14 17 -34 0 -18 4 -28 10 -24 6 3 10 17 10 31 0 18 6 24 23 25 l22 2
-23 4 c-20 4 -22 9 -18 56 2 29 4 69 5 90 l1 37 74 0 75 0 -2 -137z m265 116
c29 -6 56 -14 59 -18 4 -3 9 -36 12 -73 l6 -68 -42 -2 -42 -1 42 -4 c39 -4 61
-23 48 -42 -2 -5 -33 -14 -67 -21 -35 -6 -69 -14 -75 -16 -9 -2 -13 9 -13 36
0 31 4 40 18 41 13 0 12 2 -5 9 -21 9 -23 16 -23 90 0 90 -4 87 82 69z m-596
-41 c-3 -13 -9 -53 -12 -90 -7 -72 -12 -77 -54 -53 l-25 14 35 2 c32 2 32 2
-10 8 -44 6 -45 7 -45 41 0 31 6 39 49 68 57 38 71 40 62 10z m762 -25 c27
-20 33 -31 30 -56 -2 -24 -8 -33 -26 -35 -12 -2 -20 -8 -17 -13 6 -9 -41 -36
-49 -28 -5 5 -20 155 -17 172 1 10 36 -8 79 -40z m-818 -169 c0 -17 -22 -14
-28 4 -2 7 3 12 12 12 9 0 16 -7 16 -16z m710 -15 c0 -5 -4 -9 -10 -9 -5 0
-10 7 -10 16 0 8 5 12 10 9 6 -3 10 -10 10 -16z"/>
                      <path d="M1708 663 c12 -2 30 -2 40 0 9 3 -1 5 -23 4 -22 0 -30 -2 -17 -4z" />
                      <path d="M1948 663 c12 -2 30 -2 40 0 9 3 -1 5 -23 4 -22 0 -30 -2 -17 -4z" />
                      <path d="M2063 663 c15 -2 37 -2 50 0 12 2 0 4 -28 4 -27 0 -38 -2 -22 -4z" />
                    </g>
                  </svg>