<svg width="8" height="7" viewBox="0 0 8 7" fill="none" xmlns="http://www.w3.org/2000/svg">
<path fill-rule="evenodd" clip-rule="evenodd" d="M0 3.5C0 3.36739 0.0526785 3.24021 0.146447 3.14645C0.240215 3.05268 0.367392 3 0.5 3H6.293L4.146 0.853999C4.05211 0.760112 3.99937 0.632774 3.99937 0.499999C3.99937 0.367223 4.05211 0.239885 4.146 0.145998C4.23989 0.0521118 4.36722 -0.00063324 4.5 -0.00063324C4.63278 -0.00063324 4.76011 0.0521118 4.854 0.145998L7.854 3.146C7.90056 3.19244 7.93751 3.24762 7.96271 3.30836C7.98792 3.36911 8.00089 3.43423 8.00089 3.5C8.00089 3.56577 7.98792 3.63089 7.96271 3.69163C7.93751 3.75238 7.90056 3.80755 7.854 3.854L4.854 6.854C4.76011 6.94789 4.63278 7.00063 4.5 7.00063C4.36722 7.00063 4.23989 6.94789 4.146 6.854C4.05211 6.76011 3.99937 6.63277 3.99937 6.5C3.99937 6.36722 4.05211 6.23989 4.146 6.146L6.293 4H0.5C0.367392 4 0.240215 3.94732 0.146447 3.85355C0.0526785 3.75978 0 3.63261 0 3.5Z" fill="#71A0FB"/>
</svg>
