<svg width="16" height="19" viewBox="0 0 16 19" fill="none" xmlns="http://www.w3.org/2000/svg">
<path d="M11.8138 9.5C14.2348 7.96438 15.8751 5.0135 15.8751 1.625C15.8751 1.24363 15.8537 0.869 15.8143 0.5H0.186974C0.146213 0.873611 0.125933 1.24917 0.126224 1.625C0.126224 5.0135 1.76535 7.96438 4.18635 9.5C1.76535 11.0356 0.126224 13.9865 0.126224 17.375C0.126224 17.7564 0.147599 18.131 0.186974 18.5H15.8143C15.8548 18.131 15.8751 17.7564 15.8751 17.375C15.8751 13.9865 14.236 11.0356 11.815 9.5H11.8138ZM1.8126 17.375C1.8126 14.0889 3.22222 11.3034 5.7501 10.3843V8.61575C3.22222 7.69663 1.8126 4.91 1.8126 1.625H14.1876C14.1876 4.91113 12.778 7.69663 10.2501 8.61575V10.3843C12.778 11.3034 14.1876 14.09 14.1876 17.375H1.8126ZM9.89235 12.2697C8.63235 11.5554 8.56372 10.6284 8.5626 10.0659V8.93637C8.5626 8.37388 8.62897 7.4435 9.8946 6.728C10.5718 6.33537 11.1568 5.738 11.6001 4.99888H4.4001C4.84447 5.738 5.4306 6.33538 6.10785 6.72913C7.36785 7.4435 7.43647 8.3705 7.4376 8.933V10.0625C7.4376 10.625 7.37122 11.5554 6.1056 12.2709C4.82872 13.0122 3.8781 14.4804 3.5901 16.25H12.409C12.121 14.4792 11.1692 13.0111 9.89122 12.2697H9.89235Z" fill="#808080"/>
</svg>
